<svg width="24" height="28" viewBox="0 0 24 28" fill="none" xmlns="http://www.w3.org/2000/svg">
<path fill-rule="evenodd" clip-rule="evenodd" d="M11.9851 0C15.1881 0 17.834 2.63563 18.1603 6.00651L18.2513 6.00767C20.0281 6.00767 22.1884 7.28204 22.9175 10.8564L23.8843 18.938C24.2311 21.5463 23.7973 23.6385 22.5928 25.1391C21.3944 26.6318 19.4975 27.4219 17.1068 27.4219H6.87743C4.25146 27.4219 2.42198 26.7271 1.28361 25.2992C0.140343 23.8674 -0.241973 21.7196 0.147695 18.9168L1.09858 10.9424C1.72352 7.28601 4.00884 6.00767 5.77827 6.00767C5.93103 4.48647 6.56618 3.0393 7.57381 1.95457C8.73178 0.711954 10.3284 0 11.9594 0H11.9851ZM18.2513 7.99268H5.77827C5.23788 7.99268 3.43169 8.22823 2.91336 11.2507L1.96737 19.1907C1.6598 21.4179 1.89752 23.0297 2.67563 24.005C3.44394 24.9684 4.81881 25.4369 6.87743 25.4369H17.1068C18.391 25.4369 20.1445 25.1603 21.2032 23.8396C22.0438 22.7929 22.333 21.234 22.0634 19.2053L21.1089 11.1965C20.7021 9.22338 19.6286 7.99268 18.2513 7.99268ZM15.5589 11.677C16.0662 11.677 16.5061 12.1216 16.5061 12.6695C16.5061 13.2173 16.1226 13.662 15.6153 13.662H15.5589C15.0516 13.662 14.6399 13.2173 14.6399 12.6695C14.6399 12.1216 15.0516 11.677 15.5589 11.677ZM8.4149 11.677C8.9222 11.677 9.36211 12.1216 9.36211 12.6695C9.36211 13.2173 8.97735 13.662 8.47004 13.662H8.4149C7.9076 13.662 7.49587 13.2173 7.49587 12.6695C7.49587 12.1216 7.9076 11.677 8.4149 11.677ZM11.9815 1.985H11.9631C10.81 1.985 9.68635 2.48655 8.87147 3.36127C8.20769 4.0749 7.77356 5.01305 7.63313 6.00706L16.3079 6.00743C15.993 3.73363 14.1723 1.985 11.9815 1.985Z" fill="#F5F5FF"/>
</svg>
