<svg width="74" height="31" viewBox="0 0 74 31" fill="none" xmlns="http://www.w3.org/2000/svg">
<path fill-rule="evenodd" clip-rule="evenodd" d="M34.0235 24.2586V15.5047H38.5416C40.393 15.5047 41.9556 14.8843 43.2295 13.6608L43.5353 13.3507C45.8623 10.8175 45.7094 6.87135 43.2295 4.52778C41.9896 3.28706 40.2911 2.615 38.5416 2.64947H31.2889V24.2586H34.0235ZM34.0238 12.8508V5.30307H38.6106C39.5959 5.30307 40.5302 5.68218 41.2267 6.37147C42.7047 7.81897 42.7387 10.2315 41.3117 11.7307C40.6152 12.4717 39.6299 12.8852 38.6106 12.8508H34.0238Z" fill="white"/>
<path fill-rule="evenodd" clip-rule="evenodd" d="M56.2913 10.6279C55.1193 9.5423 53.5227 8.99087 51.5014 8.99087C48.9027 8.99087 46.9494 9.95587 45.6585 11.8686L48.0704 13.4023C48.9537 12.0927 50.1596 11.4378 51.6883 11.4378C52.6564 11.4378 53.5906 11.7997 54.321 12.4545C55.0344 13.0749 55.442 13.971 55.442 14.9187V15.5563C54.3889 14.9704 53.0641 14.6603 51.4335 14.6603C49.5312 14.6603 48.0025 15.1083 46.8645 16.0216C45.7265 16.9349 45.149 18.1412 45.149 19.6748C45.115 21.0706 45.7095 22.3975 46.7626 23.2936C47.8326 24.2586 49.1915 24.7411 50.7881 24.7411C52.6734 24.7411 54.1681 23.8967 55.3061 22.208H55.425V24.2586H58.0408V15.1428C58.0408 13.23 57.4633 11.7136 56.2913 10.6279ZM48.8692 21.5359C48.3086 21.1223 47.9688 20.4502 47.9688 19.7265C47.9688 18.9166 48.3426 18.2445 49.0731 17.7103C49.8205 17.1761 50.7549 16.9004 51.8591 16.9004C53.388 16.8832 54.5772 17.2278 55.4265 17.9171C55.4265 19.0889 54.9679 20.1056 54.0675 20.9672C53.2521 21.7943 52.1479 22.2596 50.9927 22.2596C50.2282 22.2768 49.4808 22.0184 48.8692 21.5359Z" fill="white"/>
<path d="M73.0558 9.47334L63.9177 30.7551H61.0982L64.4952 23.3108L58.4994 9.47334H61.4718L65.8031 20.0884H65.854L70.0834 9.47334H73.0558Z" fill="white"/>
<path d="M24.5827 13.609C24.5827 12.7646 24.5147 11.9202 24.3788 11.0931H12.8459V15.8664H19.4531C19.1813 17.4 18.2981 18.7786 17.0072 19.6402V22.742H20.9478C23.2578 20.588 24.5827 17.4 24.5827 13.609Z" fill="#4285F4"/>
<path d="M12.8463 25.7403C16.1414 25.7403 18.9266 24.6376 20.9478 22.742L17.0072 19.6402C15.9032 20.3984 14.4938 20.8292 12.8463 20.8292C9.65305 20.8292 6.9524 18.6407 5.98424 15.7112H1.92477V18.9164C3.99696 23.1038 8.22629 25.7403 12.8463 25.7403Z" fill="#34A853"/>
<path d="M5.98424 15.7112C5.4746 14.1775 5.4751 12.5063 5.98474 10.9554V7.76749H1.92462C0.174865 11.2656 0.174865 15.4013 1.92462 18.8995L5.98424 15.7112Z" fill="#FBBC04"/>
<path d="M12.8463 5.83734C14.5958 5.80287 16.2773 6.47493 17.5342 7.69842L21.0332 4.14858C18.8081 2.04626 15.8866 0.891701 12.8463 0.926165C8.22629 0.926165 3.99682 3.58007 1.92462 7.76749L5.98424 10.9725C6.9524 8.02583 9.65305 5.83734 12.8463 5.83734Z" fill="#EA4335"/>
</svg>
