<svg width="98" height="27" viewBox="0 0 98 27" fill="none" xmlns="http://www.w3.org/2000/svg">
<path fill-rule="evenodd" clip-rule="evenodd" d="M66.7654 8.00169C66.3544 10.7011 64.2927 10.7011 62.2991 10.7011H61.1643L61.96 5.66118C62.008 5.35669 62.2707 5.13223 62.5796 5.13223H63.0994C64.4567 5.13223 65.7388 5.13223 66.4002 5.90555C66.7955 6.36824 66.9149 7.054 66.7654 8.00169ZM65.8977 0.959237H58.3776C57.8634 0.959237 57.4257 1.33337 57.3454 1.84135L54.305 21.124C54.2448 21.5042 54.5387 21.8483 54.924 21.8483H58.7825C59.1422 21.8483 59.4489 21.5864 59.5046 21.2308L60.3668 15.7644C60.4471 15.2564 60.8849 14.8823 61.399 14.8823H63.7786C68.7318 14.8823 71.5909 12.485 72.3382 7.73401C72.6744 5.6561 72.3515 4.02337 71.3784 2.88033C70.3088 1.62369 68.4139 0.959237 65.8977 0.959237Z" fill="#2790C3"/>
<path fill-rule="evenodd" clip-rule="evenodd" d="M83.3559 14.9241C83.0085 16.9817 81.3751 18.363 79.2917 18.363C78.2472 18.363 77.4112 18.0271 76.8736 17.391C76.3411 16.7604 76.1409 15.862 76.3098 14.8616C76.6338 12.8226 78.2934 11.3966 80.3451 11.3966C81.3673 11.3966 82.1977 11.736 82.7458 12.3778C83.2974 13.0243 83.5137 13.9288 83.3559 14.9241ZM88.3743 7.91548H84.7735C84.4651 7.91548 84.2025 8.13954 84.1545 8.4447L83.9961 9.45156L83.7446 9.08657C82.9644 7.95468 81.2268 7.57647 79.4908 7.57647C75.5129 7.57647 72.1145 10.5912 71.4532 14.8197C71.1091 16.929 71.5976 18.9447 72.7932 20.3517C73.8924 21.6444 75.4605 22.1825 77.3287 22.1825C80.5353 22.1825 82.3137 20.1226 82.3137 20.1226L82.153 21.1233C82.0928 21.5038 82.3867 21.8483 82.7726 21.8483H86.0149C86.529 21.8483 86.9668 21.4744 87.0471 20.9665L88.9933 8.63971C89.0536 8.25916 88.7597 7.91548 88.3743 7.91548Z" fill="#2790C3"/>
<path fill-rule="evenodd" clip-rule="evenodd" d="M92.6187 1.48885L89.5321 21.124C89.4724 21.5046 89.7663 21.8483 90.1516 21.8483H93.2556C93.7697 21.8483 94.2075 21.4742 94.2878 20.9665L97.331 1.68386C97.3906 1.30332 97.0968 0.959237 96.7114 0.959237H93.2377C92.9293 0.959237 92.6667 1.18397 92.6187 1.48885Z" fill="#2790C3"/>
<path fill-rule="evenodd" clip-rule="evenodd" d="M13.1298 8.00168C12.7188 10.7011 10.6571 10.7011 8.66344 10.7011H7.52882L8.32444 5.66117C8.37279 5.35668 8.63539 5.13222 8.94361 5.13222H9.46374C10.8211 5.13222 12.1034 5.13223 12.7641 5.90554C13.1599 6.36823 13.2795 7.05399 13.1298 8.00168ZM12.2622 0.959229H4.74184C4.22779 0.959229 3.79013 1.33336 3.70999 1.84134L0.668888 21.124C0.60905 21.5042 0.90311 21.8483 1.28807 21.8483H4.87875C5.3928 21.8483 5.83084 21.4742 5.91092 20.9665L6.73153 15.7644C6.81133 15.2564 7.24932 14.8822 7.76337 14.8822H10.1431C15.0961 14.8822 17.955 12.485 18.7022 7.734C19.0385 5.65609 18.7162 4.02337 17.743 2.88032C16.6729 1.62368 14.7778 0.959229 12.2622 0.959229Z" fill="#27346A"/>
<path fill-rule="evenodd" clip-rule="evenodd" d="M29.7205 14.9241C29.3726 16.9817 27.7392 18.363 25.6557 18.363C24.6118 18.363 23.7753 18.0271 23.2383 17.391C22.7057 16.7603 22.5049 15.862 22.6739 14.8616C22.9979 12.8226 24.6575 11.3966 26.7092 11.3966C27.7319 11.3966 28.5617 11.736 29.1099 12.3778C29.662 13.0243 29.8784 13.9288 29.7205 14.9241ZM34.7389 7.91547H31.1381C30.8292 7.91547 30.5671 8.13954 30.5185 8.44469L30.3602 9.45155L30.1087 9.08656C29.3291 7.95467 27.5908 7.57647 25.8554 7.57647C21.877 7.57647 18.4786 10.5912 17.8172 14.8197C17.4731 16.929 17.9616 18.9447 19.1578 20.3517C20.2564 21.6444 21.8246 22.1825 23.6927 22.1825C26.8999 22.1825 28.6783 20.1226 28.6783 20.1226L28.5171 21.1233C28.4574 21.5038 28.7513 21.8482 29.1367 21.8482H32.3795C32.8936 21.8482 33.3314 21.4744 33.4112 20.9665L35.358 8.6397C35.4182 8.25915 35.1243 7.91547 34.7389 7.91547Z" fill="#27346A"/>
<path fill-rule="evenodd" clip-rule="evenodd" d="M53.917 7.91547H50.2978C49.952 7.91547 49.628 8.08717 49.4334 8.37342L44.4412 15.7268L42.3248 8.66073C42.1927 8.21861 41.7856 7.91547 41.3244 7.91547H37.7665C37.3365 7.91547 37.0343 8.33795 37.1726 8.74455L41.1582 20.4426L37.4096 25.732C37.1152 26.147 37.4124 26.7212 37.921 26.7212H41.5369C41.8798 26.7212 42.2005 26.5533 42.3957 26.2714L54.4328 8.89963C54.7206 8.48395 54.4234 7.91547 53.917 7.91547Z" fill="#27346A"/>
</svg>
