<svg width="25" height="27" viewBox="0 0 25 27" fill="none" xmlns="http://www.w3.org/2000/svg">
<path fill-rule="evenodd" clip-rule="evenodd" d="M12.3268 10.1458C14.5762 10.1458 16.3997 8.3223 16.3997 6.0729C16.3997 3.8235 14.5762 2 12.3268 2C10.0774 2 8.25391 3.8235 8.25391 6.0729C8.25391 8.3223 10.0774 10.1458 12.3268 10.1458ZM12.3268 12.1458C15.6808 12.1458 18.3997 9.42687 18.3997 6.0729C18.3997 2.71893 15.6808 0 12.3268 0C8.97283 0 6.25391 2.71893 6.25391 6.0729C6.25391 9.42687 8.97283 12.1458 12.3268 12.1458Z" fill="#F5F5FF"/>
<path fill-rule="evenodd" clip-rule="evenodd" d="M22.582 24.0286C20.0869 13.1976 4.62657 13.1596 2.00535 24.021C1.98042 24.1243 2.05989 24.2194 2.15854 24.2194L22.4301 24.2194C22.5303 24.2194 22.6045 24.1262 22.582 24.0286ZM0.0611701 23.5518C3.16388 10.6953 21.5489 10.6346 24.5309 23.5796C24.8421 24.9303 23.8162 26.2194 22.4301 26.2194L2.15854 26.2194C0.757856 26.2194 -0.265637 24.906 0.0611701 23.5518Z" fill="white"/>
</svg>
