<svg width="67" height="22" viewBox="0 0 67 22" fill="none" xmlns="http://www.w3.org/2000/svg">
<path fill-rule="evenodd" clip-rule="evenodd" d="M16.6565 21.5183H10.9417L6.65634 4.68849C6.45294 3.91431 6.02106 3.2299 5.38577 2.90733C3.80035 2.09669 2.05331 1.45155 0.147461 1.12617V0.478226H9.35351C10.6241 0.478226 11.577 1.45155 11.7358 2.58195L13.9593 14.7219L19.6713 0.478226H25.2273L16.6565 21.5183ZM28.4037 21.5183H23.0066L27.4508 0.478226H32.8479L28.4037 21.5183ZM39.8305 6.30703C39.9893 5.17382 40.9422 4.52588 42.054 4.52588C43.801 4.36319 45.7041 4.68856 47.2923 5.4964L48.2452 0.966367C46.657 0.318419 44.91 -0.00695801 43.3245 -0.00695801C38.0862 -0.00695801 34.2745 2.90741 34.2745 6.95218C34.2745 10.0292 36.9745 11.6449 38.8803 12.6182C40.9422 13.5887 41.7363 14.2367 41.5775 15.2072C41.5775 16.663 39.9893 17.3109 38.4039 17.3109C36.498 17.3109 34.5922 16.8257 32.8479 16.015L31.895 20.5479C33.8008 21.3557 35.8627 21.6811 37.7686 21.6811C43.6422 21.841 47.2923 18.9294 47.2923 14.5593C47.2923 9.0559 39.8305 8.73333 39.8305 6.30703ZM66.1809 21.5183L61.8955 0.478226H57.2925C56.3395 0.478226 55.3866 1.12617 55.069 2.09669L47.1335 21.5183H52.6894L53.7984 18.4441H60.6249L61.2602 21.5183H66.1809ZM58.0865 6.14443L59.6719 14.0741H55.2277L58.0865 6.14443Z" fill="white"/>
</svg>
