<svg width="44" height="19" viewBox="0 0 44 19" fill="none" xmlns="http://www.w3.org/2000/svg">
<path d="M39.4021 11.3572L42.6944 3.44119C43.0775 2.5201 42.0237 1.66744 41.2028 2.23433L17.29 18.749H28.3222C33.1694 18.749 37.5407 15.8328 39.4021 11.3572Z" fill="#F63A3B"/>
<path d="M22.3114 10.752L11.4191 18.749H10.5954C7.7422 18.749 5.80642 15.8473 6.90211 13.2129L12.2715 0.302734L22.3114 10.752Z" fill="#F63A3B"/>
<path d="M17.5752 0.302734H37.6548L25.3418 8.83278L17.5752 0.302734Z" fill="#F63A3B"/>
<path d="M3.8418 8.61963H11.2296" stroke="url(#paint0_linear_811_76)" stroke-linecap="round"/>
<path d="M1 10.1123H10.661" stroke="url(#paint1_linear_811_76)" stroke-linecap="round"/>
<path d="M3.8418 11.605H11.2296" stroke="url(#paint2_linear_811_76)" stroke-linecap="round"/>
<defs>
<linearGradient id="paint0_linear_811_76" x1="3.8418" y1="9.11963" x2="11.2296" y2="9.11963" gradientUnits="userSpaceOnUse">
<stop offset="0.769" stop-color="#F63A3B"/>
<stop offset="1" stop-color="white"/>
</linearGradient>
<linearGradient id="paint1_linear_811_76" x1="1" y1="10.6123" x2="10.661" y2="10.6123" gradientUnits="userSpaceOnUse">
<stop offset="0.804" stop-color="#F63A3B"/>
<stop offset="1" stop-color="white"/>
</linearGradient>
<linearGradient id="paint2_linear_811_76" x1="3.8418" y1="12.105" x2="11.2296" y2="12.105" gradientUnits="userSpaceOnUse">
<stop offset="0.769" stop-color="#F63A3B"/>
<stop offset="1" stop-color="white"/>
</linearGradient>
</defs>
</svg>
