<svg width="41" height="27" viewBox="0 0 41 27" fill="none" xmlns="http://www.w3.org/2000/svg">
<rect x="0.5" y="0.5" width="40" height="26" rx="3.5" fill="#1F72CD" stroke="#D9D9D9"/>
<path fill-rule="evenodd" clip-rule="evenodd" d="M7.82654 9.5625L4.1001 17.7151H8.56117L9.11422 16.4152H10.3784L10.9314 17.7151H15.8418V16.723L16.2793 17.7151H18.8194L19.2569 16.702V17.7151H29.4692L30.711 16.449L31.8737 17.7151L37.1189 17.7256L33.3807 13.6616L37.1189 9.5625H31.9551L30.7463 10.8052L29.6201 9.5625H18.5105L17.5565 11.6668L16.5802 9.5625H12.1284V10.5208L11.6332 9.5625H7.82654ZM23.0765 10.7202H28.9409L30.7345 12.6356L32.586 10.7202H34.3796L31.6543 13.6604L34.3796 16.5667H32.5046L30.711 14.6291L28.8501 16.5667H23.0765V10.7202ZM24.5247 12.9993V11.9314V11.9304H28.1839L29.7805 13.6383L28.1131 15.3555H24.5247V14.1896H27.7239V12.9993H24.5247ZM8.68974 10.7202H10.8643L13.336 16.2485V10.7202H15.7181L17.6273 14.684L19.3868 10.7202H21.757V16.5702H20.3148L20.303 11.9862L18.2004 16.5702H16.9102L14.7958 11.9862V16.5702H11.8289L11.2664 15.2587H8.22749L7.66617 16.569H6.07649L8.68974 10.7202ZM8.74638 14.0463L9.74757 11.71L10.7476 14.0463H8.74638Z" fill="white"/>
</svg>
