<svg width="31" height="13" viewBox="0 0 31 13" fill="none" xmlns="http://www.w3.org/2000/svg">
<path fill-rule="evenodd" clip-rule="evenodd" d="M4.77677 3.04958C5.32739 3.09418 5.87801 2.78194 6.22214 2.38605C6.56055 1.97902 6.78424 1.43258 6.72688 0.875C6.23935 0.897303 5.63711 1.18725 5.29297 1.59428C4.97751 1.94556 4.70794 2.5143 4.77677 3.04958ZM11.3269 10.2313V1.53854H14.6822C16.4144 1.53854 17.6246 2.69831 17.6246 4.39337C17.6246 6.08842 16.3914 7.25935 14.6363 7.25935H12.7149V10.2313H11.3269ZM6.72111 3.15553C6.23602 3.12839 5.7934 3.29735 5.43589 3.43382C5.20582 3.52165 5.01099 3.59602 4.86277 3.59602C4.69643 3.59602 4.49356 3.51767 4.26578 3.4297C3.96732 3.31444 3.6261 3.18266 3.26826 3.18898C2.44807 3.20013 1.68523 3.65178 1.26653 4.37106C0.406191 5.80963 1.04284 7.93959 1.87451 9.11052C2.28174 9.69041 2.76927 10.3261 3.41166 10.3037C3.69427 10.2934 3.89756 10.2095 4.10795 10.1227C4.35017 10.0228 4.60179 9.91902 4.99469 9.91902C5.37396 9.91902 5.61457 10.0201 5.84555 10.1172C6.06518 10.2094 6.27609 10.298 6.58919 10.2926C7.25452 10.2814 7.67322 9.71271 8.08045 9.13282C8.51991 8.51045 8.71304 7.90304 8.74234 7.81086L8.74578 7.8002C8.74508 7.79952 8.73965 7.7971 8.73007 7.79284C8.58316 7.72745 7.4603 7.22773 7.44953 5.88769C7.43872 4.76292 8.34015 4.19304 8.48206 4.10333C8.49069 4.09787 8.49652 4.09419 8.49915 4.09227C7.92559 3.26704 7.03083 3.17783 6.72111 3.15553ZM20.1598 10.2981C21.0316 10.2981 21.8403 9.86879 22.2074 9.18854H22.2361V10.2312H23.5208V5.90437C23.5208 4.64981 22.4884 3.84131 20.8997 3.84131C19.4256 3.84131 18.3358 4.66096 18.2957 5.78728H19.5461C19.6493 5.252 20.1598 4.90072 20.8595 4.90072C21.7084 4.90072 22.1844 5.28545 22.1844 5.99359V6.47311L20.4523 6.57347C18.8406 6.66826 17.9688 7.30948 17.9688 8.42465C17.9688 9.55097 18.8693 10.2981 20.1598 10.2981ZM20.5325 9.26664C19.7926 9.26664 19.3223 8.92094 19.3223 8.39124C19.3223 7.84481 19.7754 7.52698 20.6415 7.4768L22.1844 7.38201V7.87269C22.1844 8.68676 21.4732 9.26664 20.5325 9.26664ZM27.7824 10.5714C27.226 12.0936 26.5894 12.5954 25.2358 12.5954C25.1325 12.5954 24.7884 12.5842 24.7081 12.5619V11.5193C24.7941 11.5304 25.0063 11.5416 25.1153 11.5416C25.729 11.5416 26.0732 11.2906 26.2854 10.6383L26.4116 10.2535L24.0599 3.92497H25.5111L27.1457 9.06031H27.1744L28.809 3.92497H30.22L27.7824 10.5714ZM12.7148 2.67598H14.315C15.5195 2.67598 16.2078 3.30048 16.2078 4.39892C16.2078 5.49736 15.5195 6.12743 14.3093 6.12743H12.7148V2.67598Z" fill="black"/>
</svg>
