<svg width="31" height="13" viewBox="0 0 31 13" fill="none" xmlns="http://www.w3.org/2000/svg">
<path fill-rule="evenodd" clip-rule="evenodd" d="M14.3638 9.72765V6.32908H16.1903C16.9387 6.32908 17.5704 6.08823 18.0854 5.61324L18.209 5.49281C19.1497 4.50937 19.0879 2.97733 18.0854 2.06748C17.5841 1.58579 16.8975 1.32488 16.1903 1.33826H13.2583V9.72765H14.3638ZM14.3639 5.29882V2.36855H16.2181C16.6165 2.36855 16.9942 2.51573 17.2757 2.78334C17.8732 3.34531 17.8869 4.28192 17.3101 4.86396C17.0285 5.15163 16.6302 5.3122 16.2181 5.29882H14.3639ZM23.3657 4.43579C22.8919 4.01432 22.2465 3.80023 21.4294 3.80023C20.3788 3.80023 19.5892 4.17488 19.0673 4.91748L20.0423 5.5129C20.3994 5.00445 20.8869 4.75023 21.5049 4.75023C21.8963 4.75023 22.2739 4.89072 22.5692 5.14494C22.8576 5.38579 23.0224 5.73367 23.0224 6.10163V6.34916C22.5966 6.1217 22.0611 6.00128 21.4019 6.00128C20.6328 6.00128 20.0149 6.17522 19.5548 6.52979C19.0948 6.88437 18.8613 7.35268 18.8613 7.9481C18.8476 8.49 19.0879 9.00513 19.5136 9.35302C19.9462 9.72766 20.4955 9.91499 21.141 9.91499C21.9031 9.91499 22.5074 9.58717 22.9674 8.93154H23.0155V9.72766H24.0729V6.1886C24.0729 5.446 23.8395 4.85727 23.3657 4.43579ZM20.3653 8.6706C20.1386 8.51004 20.0013 8.24912 20.0013 7.96814C20.0013 7.6537 20.1524 7.39279 20.4477 7.18539C20.7498 6.978 21.1276 6.87096 21.5739 6.87096C22.192 6.86427 22.6727 6.99807 23.0161 7.26568C23.0161 7.7206 22.8307 8.11532 22.4667 8.44982C22.1371 8.77095 21.6907 8.95158 21.2237 8.95158C20.9147 8.95827 20.6125 8.85792 20.3653 8.6706ZM26.4487 12.2498L30.1428 3.98757H28.9412L27.2315 8.10867H27.2109L25.4599 3.98757H24.2583L26.6821 9.35972L25.3089 12.2498H26.4487Z" fill="#3C4043"/>
<path d="M10.5469 5.59309C10.5469 5.26527 10.5195 4.93746 10.4645 4.61633H5.80225V6.46949H8.47327C8.36341 7.06491 8.00636 7.60012 7.48451 7.93463V9.13884H9.07752C10.0113 8.30258 10.5469 7.06491 10.5469 5.59309Z" fill="#4285F4"/>
<path d="M5.80279 10.3029C7.13487 10.3029 8.26096 9.87478 9.07806 9.13886L7.48506 7.93465C7.03874 8.22901 6.46883 8.39626 5.80279 8.39626C4.51191 8.39626 3.42015 7.54662 3.02876 6.4093H1.3877V7.65366C2.2254 9.27936 3.93513 10.3029 5.80279 10.3029Z" fill="#34A853"/>
<path d="M3.02878 6.40933C2.82275 5.81392 2.82275 5.16497 3.02878 4.56287V3.3252H1.38745C0.680096 4.68329 0.680096 6.28891 1.38745 7.647L3.02878 6.40933Z" fill="#FBBC04"/>
<path d="M5.80279 2.57592C6.51003 2.56254 7.1898 2.82345 7.69791 3.29845L9.11239 1.92029C8.21289 1.10409 7.03187 0.655856 5.80279 0.669236C3.93513 0.669236 2.2254 1.69951 1.3877 3.32521L3.02876 4.56957C3.42015 3.42556 4.51191 2.57592 5.80279 2.57592Z" fill="#EA4335"/>
</svg>
