<svg width="41" height="27" viewBox="0 0 41 27" fill="none" xmlns="http://www.w3.org/2000/svg">
<rect x="0.5" y="0.5" width="40" height="26" rx="3.5" fill="white" stroke="#D9D9D9"/>
<path fill-rule="evenodd" clip-rule="evenodd" d="M25.9778 21.1567C30.3926 21.1567 33.9714 17.6798 33.9714 13.3909C33.9714 9.10189 30.3926 5.625 25.9778 5.625C23.9766 5.625 22.1471 6.33947 20.7449 7.52018C19.4167 6.5649 17.773 6 15.9936 6C11.5788 6 8 9.47689 8 13.7659C8 18.0548 11.5788 21.5317 15.9936 21.5317C17.9948 21.5317 19.8243 20.8172 21.2265 19.6365C22.5547 20.5918 24.1984 21.1567 25.9778 21.1567Z" fill="#ED0006"/>
<path fill-rule="evenodd" clip-rule="evenodd" d="M20.793 19.3016C22.5117 17.8772 23.6015 15.7577 23.6015 13.3909C23.6015 11.0241 22.5117 8.90456 20.793 7.48016C22.1888 6.32335 23.9995 5.625 25.978 5.625C30.3927 5.625 33.9715 9.10189 33.9715 13.3909C33.9715 17.6798 30.3927 21.1567 25.978 21.1567C23.9995 21.1567 22.1888 20.4584 20.793 19.3016Z" fill="#F9A000"/>
<path fill-rule="evenodd" clip-rule="evenodd" d="M20.7929 19.3016C19.0742 17.8772 17.9844 15.7577 17.9844 13.3909C17.9844 11.0241 19.0742 8.90463 20.7929 7.48022C22.5116 8.90463 23.6014 11.0241 23.6014 13.3909C23.6014 15.7577 22.5116 17.8772 20.7929 19.3016Z" fill="#FF5E00"/>
</svg>
