<svg width="42" height="27" viewBox="0 0 42 27" fill="none" xmlns="http://www.w3.org/2000/svg">
<rect x="0.5" y="0.5" width="41" height="26" rx="3.5" fill="#5A31F4" stroke="#D9D9D9"/>
<path d="M23.2453 12.4439C23.2453 14.1765 21.9496 15.4133 20.139 15.4133H18.4331C18.4143 15.4133 18.3956 15.4168 18.3783 15.4236C18.3609 15.4304 18.3451 15.4403 18.3318 15.4528C18.3185 15.4653 18.308 15.4802 18.3008 15.4965C18.2937 15.5129 18.2901 15.5304 18.2902 15.548V17.8252C18.2902 17.8608 18.2751 17.895 18.2483 17.9202C18.2215 17.9455 18.1852 17.9597 18.1472 17.9599H16.9535C16.9251 17.9598 16.8974 17.9518 16.8739 17.937C16.8503 17.9222 16.8319 17.9012 16.821 17.8766C16.8138 17.8605 16.81 17.8433 16.8099 17.8259V9.60847C16.8098 9.59082 16.8134 9.57332 16.8205 9.55698C16.8277 9.54065 16.8382 9.52579 16.8515 9.51328C16.8648 9.50077 16.8806 9.49083 16.898 9.48406C16.9153 9.47728 16.934 9.47379 16.9528 9.47379H20.1466C21.9496 9.47184 23.2453 10.7087 23.2453 12.4439ZM21.7567 12.4439C21.7567 11.4478 21.0322 10.7197 20.0494 10.7197H18.4331C18.4143 10.7197 18.3956 10.7232 18.3783 10.73C18.3609 10.7368 18.3451 10.7467 18.3318 10.7592C18.3185 10.7717 18.308 10.7866 18.3008 10.8029C18.2937 10.8193 18.2901 10.8368 18.2902 10.8544V14.0256C18.2902 14.0611 18.3052 14.0952 18.332 14.1203C18.3588 14.1455 18.3952 14.1596 18.4331 14.1596H20.0494C21.0322 14.1661 21.7567 13.4374 21.7567 12.4439ZM23.5993 16.3834C23.5869 16.1177 23.6455 15.8533 23.7699 15.6142C23.8942 15.3751 24.0803 15.169 24.3113 15.0145C24.777 14.6859 25.505 14.5161 26.5737 14.481L27.7119 14.4433V14.1284C27.7119 13.4973 27.2608 13.2305 26.5363 13.2305C25.8117 13.2305 25.3523 13.4712 25.2468 13.8649C25.2382 13.8925 25.2201 13.9168 25.1952 13.9337C25.1703 13.9507 25.1401 13.9594 25.1094 13.9585H23.9851C23.9644 13.9591 23.9438 13.9553 23.9249 13.9476C23.9059 13.9398 23.889 13.9282 23.8753 13.9136C23.8617 13.899 23.8516 13.8817 23.8459 13.8631C23.8402 13.8444 23.8389 13.8248 23.8422 13.8057C24.0087 12.8727 24.8367 12.1635 26.5876 12.1635C28.4503 12.1635 29.1228 12.9768 29.1228 14.5291V17.8252C29.1224 17.8612 29.1069 17.8955 29.0796 17.9208C29.0523 17.946 29.0154 17.9601 28.9771 17.9599H27.8438C27.8058 17.9598 27.7695 17.9458 27.7424 17.9209C27.7292 17.9084 27.7187 17.8935 27.7115 17.8772C27.7044 17.8609 27.7007 17.8435 27.7008 17.8259V17.5793C27.7012 17.5589 27.695 17.5389 27.6831 17.5219C27.6711 17.5048 27.6539 17.4916 27.6338 17.4839C27.6136 17.4763 27.5915 17.4745 27.5702 17.4788C27.549 17.4832 27.5297 17.4935 27.5148 17.5084C27.1747 17.8551 26.6258 18.1056 25.7465 18.1056C24.4529 18.1056 23.5993 17.4745 23.5993 16.3834ZM27.7119 15.669V15.4133L26.2378 15.4862C25.4613 15.5233 25.0095 15.8258 25.0095 16.3353C25.0095 16.7959 25.4238 17.051 26.1476 17.051C27.131 17.051 27.7119 16.5532 27.7119 15.669ZM30.261 20.4505V19.4954C30.2612 19.4753 30.2661 19.4556 30.2754 19.4375C30.2846 19.4195 30.298 19.4036 30.3145 19.3909C30.3311 19.3782 30.3504 19.3691 30.3711 19.3643C30.3919 19.3594 30.4135 19.3588 30.4345 19.3626C30.608 19.3932 30.7849 19.4088 30.9619 19.4095C31.2661 19.4234 31.5665 19.3411 31.815 19.176C32.0635 19.0109 32.2458 18.7723 32.3325 18.4986L32.4061 18.2787C32.4168 18.2492 32.4168 18.2171 32.4061 18.1876L30.0444 12.5012C30.0359 12.4805 30.0328 12.4583 30.0355 12.4363C30.0381 12.4143 30.0464 12.3933 30.0597 12.375C30.0729 12.3567 30.0907 12.3417 30.1115 12.3312C30.1323 12.3208 30.1555 12.3153 30.1791 12.3151H31.3242C31.3534 12.3154 31.3819 12.3239 31.4059 12.3395C31.4299 12.3552 31.4484 12.3773 31.4588 12.4029L33.0626 16.4134C33.0727 16.44 33.0913 16.4631 33.1159 16.4794C33.1405 16.4957 33.1699 16.5045 33.2 16.5045C33.2302 16.5045 33.2596 16.4957 33.2842 16.4794C33.3088 16.4631 33.3274 16.44 33.3375 16.4134L34.7303 12.414C34.74 12.3866 34.7586 12.3629 34.7835 12.346C34.8084 12.3292 34.8384 12.3202 34.8691 12.3203H36.0538C36.0775 12.3204 36.1008 12.3259 36.1218 12.3364C36.1428 12.3468 36.1607 12.3618 36.1742 12.3801C36.1876 12.3985 36.1961 12.4196 36.1989 12.4417C36.2018 12.4638 36.1989 12.4862 36.1905 12.507L33.6643 18.822C33.0828 20.2898 32.0855 20.6652 30.9876 20.6652C30.7794 20.6704 30.5712 20.647 30.3699 20.5956C30.3364 20.5873 30.3072 20.5682 30.2872 20.5416C30.2673 20.5151 30.258 20.4828 30.261 20.4505ZM9.13909 9.00014C7.63455 8.99009 6.18312 9.52097 5.08335 10.4836C5.03632 10.5239 5.007 10.5793 5.0011 10.6388C4.9952 10.6983 5.01314 10.7578 5.05143 10.8056L5.73224 11.6775C5.75431 11.7065 5.7829 11.7306 5.81599 11.7482C5.84909 11.7657 5.88588 11.7763 5.92379 11.7791C5.96169 11.7819 5.99979 11.7768 6.0354 11.7643C6.07101 11.7518 6.10327 11.7322 6.1299 11.7067C6.52535 11.3361 6.99563 11.0431 7.51326 10.8448C8.03089 10.6465 8.58549 10.5469 9.14464 10.5519C11.4793 10.5519 12.6986 12.1993 12.6986 13.8258C12.6986 15.5942 11.4175 16.8382 9.57631 16.8629C8.15361 16.8629 7.08138 15.9787 7.08138 14.8109C7.08286 14.5158 7.15416 14.2248 7.29013 13.9587C7.4261 13.6926 7.62336 13.4581 7.86768 13.2721C7.91933 13.2317 7.95198 13.1739 7.9586 13.1111C7.96522 13.0483 7.94528 12.9856 7.90307 12.9364L7.18756 12.0893C7.16592 12.0637 7.13903 12.0424 7.10847 12.0267C7.07791 12.011 7.0443 12.0012 7.00962 11.9978C6.97495 11.9945 6.93991 11.9977 6.90659 12.0073C6.87326 12.0168 6.84231 12.0326 6.81558 12.0535C6.37615 12.3854 6.02154 12.8053 5.77776 13.2825C5.53398 13.7596 5.40721 14.2818 5.40676 14.8109C5.40676 16.8213 7.2292 18.3984 9.56381 18.4114H9.59504C12.3669 18.3776 14.3711 16.453 14.3711 13.8226C14.3711 11.4868 12.5362 9.00014 9.13978 9.00014H9.13909Z" fill="white"/>
</svg>
