<svg width="24" height="21" viewBox="0 0 24 21" fill="none" xmlns="http://www.w3.org/2000/svg">
<path fill-rule="evenodd" clip-rule="evenodd" d="M2.88001 14.1461H1.01327C0.885527 14.1461 0.776883 14.2332 0.756963 14.3513L0.00195825 18.839C-0.0130481 18.9276 0.0601022 19.0074 0.155913 19.0074H1.04711C1.17485 19.0074 1.2835 18.9204 1.30342 18.802L1.50705 17.5916C1.52669 17.473 1.6356 17.3861 1.76308 17.3861H2.35403C3.58371 17.3861 4.29336 16.8282 4.47879 15.7228C4.56228 15.2391 4.48233 14.8591 4.24068 14.5929C3.97542 14.3008 3.50477 14.1461 2.88001 14.1461ZM3.09538 15.7852C2.99331 16.4132 2.48151 16.4132 1.98664 16.4132H1.70494L1.90256 15.2403C1.9143 15.1695 1.9798 15.1173 2.05624 15.1173H2.18534C2.52244 15.1173 2.84047 15.1173 3.00481 15.2974C3.1027 15.4049 3.13277 15.5646 3.09538 15.7852ZM8.46015 15.7651H7.56621C7.49004 15.7651 7.42423 15.8173 7.41248 15.8882L7.37294 16.1226L7.31042 16.0377C7.1169 15.7743 6.68541 15.6863 6.25467 15.6863C5.26675 15.6863 4.42308 16.3877 4.25875 17.3717C4.17336 17.8624 4.29475 18.3317 4.59172 18.659C4.86418 18.9599 5.25399 19.0854 5.7177 19.0854C6.51362 19.0854 6.95509 18.6055 6.95509 18.6055L6.91517 18.8384C6.90014 18.9275 6.97328 19.0073 7.06852 19.0073H7.87379C8.00187 19.0073 8.10987 18.9203 8.13008 18.8019L8.61324 15.9335C8.62853 15.8452 8.55564 15.7651 8.46015 15.7651ZM7.21404 17.3962C7.12776 17.875 6.72242 18.1964 6.20553 18.1964C5.94595 18.1964 5.73841 18.1183 5.60528 17.9704C5.47315 17.8236 5.42288 17.6144 5.46494 17.3816C5.54553 16.9069 5.9577 16.5751 6.46675 16.5751C6.72052 16.5751 6.92692 16.654 7.06284 16.8033C7.19901 16.954 7.25307 17.1643 7.21404 17.3962ZM12.3228 15.7649H13.2211C13.3469 15.7649 13.4203 15.8972 13.3488 15.994L10.3611 20.0371C10.3127 20.1026 10.233 20.1416 10.1479 20.1416H9.25063C9.12432 20.1416 9.05055 20.0082 9.12369 19.9112L10.054 18.6801L9.06457 15.9578C9.03034 15.8632 9.10486 15.7649 9.21223 15.7649H10.0949C10.2096 15.7649 10.3108 15.8355 10.3439 15.9384L10.869 17.5826L12.108 15.8716C12.1565 15.8048 12.2371 15.7649 12.3228 15.7649Z" fill="#253B80"/>
<path fill-rule="evenodd" clip-rule="evenodd" d="M22.0628 18.839L22.8289 14.2693C22.8406 14.1983 22.9062 14.1461 22.9823 14.1459H23.8448C23.9401 14.1459 24.0132 14.2259 23.9982 14.3145L23.2427 18.802C23.223 18.9204 23.1143 19.0074 22.9864 19.0074H22.2161C22.1209 19.0074 22.0477 18.9276 22.0628 18.839ZM16.1955 14.1461H14.3284C14.201 14.1461 14.0923 14.2332 14.0724 14.3513L13.3174 18.839C13.3024 18.9276 13.3755 19.0074 13.4709 19.0074H14.4289C14.5179 19.0074 14.5941 18.9466 14.608 18.8637L14.8222 17.5916C14.8419 17.473 14.9508 17.3861 15.0782 17.3861H15.6689C16.8988 17.3861 17.6084 16.8282 17.7939 15.7228C17.8777 15.2391 17.7972 14.8591 17.5557 14.5929C17.2905 14.3008 16.8203 14.1461 16.1955 14.1461ZM16.4109 15.7852C16.3091 16.4132 15.7972 16.4132 15.3021 16.4132H15.0206L15.2186 15.2403C15.2303 15.1695 15.2953 15.1173 15.3719 15.1173H15.501C15.8379 15.1173 16.1562 15.1173 16.3204 15.2974C16.4185 15.4049 16.4483 15.5646 16.4109 15.7852ZM21.7751 15.765H20.8818C20.805 15.765 20.7399 15.8173 20.7284 15.8882L20.6888 16.1226L20.626 16.0377C20.4325 15.7743 20.0013 15.6863 19.5705 15.6863C18.5826 15.6863 17.7392 16.3877 17.5749 17.3717C17.4897 17.8624 17.6106 18.3317 17.9076 18.659C18.1806 18.9599 18.5699 19.0853 19.0336 19.0853C19.8295 19.0853 20.2708 18.6055 20.2708 18.6055L20.2311 18.8384C20.216 18.9275 20.2892 19.0073 20.385 19.0073H21.1899C21.3174 19.0073 21.426 18.9203 21.446 18.8018L21.9294 15.9334C21.9442 15.8452 21.871 15.765 21.7751 15.765ZM20.5292 17.3962C20.4434 17.875 20.0375 18.1964 19.5205 18.1964C19.2615 18.1964 19.0535 18.1183 18.9203 17.9704C18.7881 17.8236 18.7385 17.6144 18.7801 17.3816C18.861 16.9069 19.2727 16.5751 19.7817 16.5751C20.0356 16.5751 20.2419 16.654 20.378 16.8032C20.5146 16.954 20.5687 17.1643 20.5292 17.3962Z" fill="#179BD7"/>
<path d="M9.78817 12.5407L10.0177 11.1741L9.50649 11.1629H7.06543L8.76186 1.07863C8.76703 1.04819 8.78421 1.0198 8.80922 0.999647C8.83423 0.979492 8.86632 0.968384 8.89967 0.968384H13.0157C14.3822 0.968384 15.3251 1.23496 15.8175 1.76112C16.0483 2.00796 16.1953 2.26589 16.2664 2.54975C16.3409 2.8476 16.3423 3.20344 16.2695 3.63746L16.2641 3.66914V3.94722L16.4951 4.06983C16.6895 4.16649 16.8438 4.27716 16.9623 4.40387C17.1599 4.61491 17.2876 4.88313 17.3415 5.20113C17.3972 5.52819 17.3788 5.91735 17.2876 6.35795C17.1822 6.86478 17.0119 7.3062 16.782 7.6674C16.5705 8.00021 16.301 8.27619 15.9812 8.49018C15.6758 8.69339 15.3129 8.84769 14.9026 8.94645C14.5049 9.04344 14.0517 9.09247 13.5545 9.09247H13.2342C13.0052 9.09247 12.7826 9.1698 12.6081 9.30847C12.433 9.44998 12.317 9.64324 12.2815 9.85474L12.2574 9.97778L11.8519 12.3864L11.8335 12.4748C11.8287 12.5029 11.8203 12.5169 11.8081 12.5263C11.7971 12.5349 11.7813 12.5407 11.7659 12.5407H9.78817Z" fill="#253B80"/>
<path d="M16.7137 3.70142C16.7014 3.77505 16.6874 3.85033 16.6716 3.92767C16.1287 6.54039 14.2717 7.44297 11.8999 7.44297H10.6923C10.4023 7.44297 10.1579 7.64043 10.1126 7.90865L9.49431 11.5848L9.31924 12.6268C9.28981 12.8029 9.43469 12.9617 9.62417 12.9617H11.7661C12.0197 12.9617 12.2351 12.7889 12.275 12.5545L12.2961 12.4524L12.6995 10.0532L12.7254 9.92161C12.7648 9.68631 12.9806 9.51353 13.2343 9.51353H13.5546C15.6297 9.51353 17.2543 8.72366 17.7291 6.43795C17.9274 5.48312 17.8247 4.68586 17.2999 4.12514C17.1411 3.95606 16.9441 3.81578 16.7137 3.70142Z" fill="#179BD7"/>
<path d="M16.1455 3.48929C16.0627 3.46666 15.977 3.44609 15.8892 3.42758C15.8011 3.40949 15.7106 3.39344 15.6177 3.37946C15.292 3.33009 14.9353 3.30664 14.5531 3.30664H11.327C11.2475 3.30664 11.1721 3.3235 11.1045 3.35395C10.9557 3.421 10.8452 3.55306 10.8184 3.71473L10.132 7.78993L10.1123 7.90881C10.1575 7.64059 10.4019 7.44312 10.692 7.44312H11.8996C14.2714 7.44312 16.1285 6.54014 16.6713 3.92783C16.6874 3.85049 16.7011 3.77521 16.7133 3.70158C16.576 3.63328 16.4272 3.57487 16.2671 3.52508C16.2276 3.51274 16.1868 3.50082 16.1455 3.48929Z" fill="#222D65"/>
<path d="M10.8188 3.71463C10.8456 3.55294 10.9562 3.42089 11.1049 3.35425C11.173 3.3238 11.248 3.30694 11.3273 3.30694H14.5536C14.9358 3.30694 15.2925 3.33038 15.618 3.37975C15.7111 3.39374 15.8016 3.40978 15.8897 3.42788C15.9775 3.4464 16.063 3.46697 16.146 3.48959C16.1872 3.50111 16.228 3.51304 16.2679 3.52497C16.4281 3.57475 16.5769 3.63358 16.7142 3.70146C16.8758 2.73593 16.7129 2.07854 16.1561 1.48326C15.5422 0.827927 14.4342 0.547363 13.0164 0.547363H8.90029C8.61065 0.547363 8.3637 0.744819 8.31886 1.01346L6.6045 11.2014C6.57064 11.403 6.7365 11.5849 6.95326 11.5849H9.49448L10.1325 7.78981L10.8188 3.71463Z" fill="#253B80"/>
</svg>
