<svg width="29" height="10" viewBox="0 0 29 10" fill="none" xmlns="http://www.w3.org/2000/svg">
<path fill-rule="evenodd" clip-rule="evenodd" d="M7.14336 9.29053H4.72014L2.90301 2.46642C2.81677 2.15251 2.63364 1.875 2.36426 1.7442C1.69199 1.41551 0.951202 1.15392 0.143066 1.02199V0.759257H4.04669C4.58545 0.759257 4.98952 1.15392 5.05686 1.61227L5.99968 6.53473L8.42173 0.759257H10.7776L7.14336 9.29053ZM12.1245 9.29053H9.83597L11.7204 0.759257H14.009L12.1245 9.29053ZM16.9698 3.12268C17.0371 2.66319 17.4412 2.40046 17.9126 2.40046C18.6534 2.33449 19.4603 2.46643 20.1338 2.79398L20.5379 0.957161C19.8644 0.694433 19.1236 0.5625 18.4514 0.5625C16.2302 0.5625 14.6139 1.74421 14.6139 3.38427C14.6139 4.63194 15.7588 5.28706 16.5669 5.68172C17.4412 6.07524 17.7779 6.33797 17.7106 6.73149C17.7106 7.32178 17.0371 7.58451 16.3649 7.58451C15.5567 7.58451 14.7486 7.38775 14.009 7.05905L13.6049 8.89701C14.413 9.22457 15.2873 9.3565 16.0955 9.3565C18.586 9.42133 20.1338 8.24076 20.1338 6.46877C20.1338 4.23728 16.9698 4.10649 16.9698 3.12268ZM28.1431 9.29053L26.3259 0.759257H24.3741C23.9701 0.759257 23.566 1.02199 23.4313 1.41551L20.0664 9.29053H22.4223L22.8925 8.04399H25.7872L26.0566 9.29053H28.1431ZM24.7108 3.05672L25.3831 6.27201H23.4986L24.7108 3.05672Z" fill="#172B85"/>
</svg>
